<?xml version="1.0" encoding="iso-8859-1"?>
<!-- Generator: Adobe Illustrator 16.0.0, SVG Export Plug-In . SVG Version: 6.00 Build 0)  -->
<!DOCTYPE svg PUBLIC "-//W3C//DTD SVG 1.1//EN" "http://www.w3.org/Graphics/SVG/1.1/DTD/svg11.dtd">
<svg version="1.1" id="Capa_1" xmlns="http://www.w3.org/2000/svg" xmlns:xlink="http://www.w3.org/1999/xlink" x="0px" y="0px"
	 width="464.535px" height="464.535px" viewBox="0 0 464.535 464.535" style="enable-background:new 0 0 464.535 464.535;"
	 xml:space="preserve">
<g>
	<path d="M48.796,329.839h51.019l140.506,92.274c19.515,10.776,48.793-21.853,48.793-48.798V92.733
		c0-26.952-24.394-64.249-48.793-48.801l-140.244,100.48H48.796C21.844,144.413,0,166.257,0,193.209v87.834
		C0,307.99,21.844,329.839,48.796,329.839z"/>
	<path d="M336.417,98.338c53.326,0,96.719,60.077,96.719,133.928c0,73.854-43.393,133.929-96.719,133.929
		c-8.673,0-15.701,7.037-15.701,15.7c0,8.669,7.028,15.701,15.701,15.701c70.65,0,128.117-74.165,128.117-165.33
		s-57.467-165.33-128.117-165.33c-8.673,0-15.701,7.035-15.701,15.701C320.716,91.305,327.737,98.338,336.417,98.338z"/>
	<path d="M324.624,299.747c-8.66,0-15.701,7.041-15.701,15.701c0,8.672,7.041,15.701,15.701,15.701
		c33.702,0,59.109-42.511,59.109-98.884c0-56.374-25.407-98.885-59.109-98.885c-8.66,0-15.701,7.033-15.701,15.701
		c0,8.666,7.041,15.701,15.701,15.701c11.032,0,27.707,26.92,27.707,67.483C352.331,272.833,335.656,299.747,324.624,299.747z"/>
</g>
<g>
</g>
<g>
</g>
<g>
</g>
<g>
</g>
<g>
</g>
<g>
</g>
<g>
</g>
<g>
</g>
<g>
</g>
<g>
</g>
<g>
</g>
<g>
</g>
<g>
</g>
<g>
</g>
<g>
</g>
</svg>
